<svg xmlns="http://www.w3.org/2000/svg" xml:space="preserve" viewBox="67.92 13.22 543.3 543.27"><defs><clipPath id="a" clipPathUnits="userSpaceOnUse"><path d="M0 500h500V0H0Z"/></clipPath></defs><g clip-path="url(#a)" transform="matrix(1.33333 0 0 -1.33333 0 666.667)"><path d="M341.104 203.498c30.075-4.76 66.498 12.71 87.558 38.622 21.028 25.915 27.684 53.915 29.286 67.766.458 4.037 1.011 5.245-.962 2.414-2.653-3.784-16.547-4.917-39.564.139-33.376 7.329-72.98 20.082-108.131 22.577-28.687 2.012-48.723-9.556-52.195-19.577-3.789-10.903-2.203-12.216-1.429-2.712.812 10.104 3.789 33.687 22.854 56.521-21.173-25.439-23.533-53.541-23.107-67.012.244-7.66.244-6.548.04-2.684-.474 9.014 8.327 24.637 27.739 26.014 26.493 1.856 61.771-8.493 94.734-17.71 50.989-14.249 71.417-13.874 52.985-43.049-12.102-19.083-36.762-45.994-71.637-53.904-32.832-7.405-72.467 11.699-89.73 41.973 15.045-25.83 42.176-44.554 71.559-49.378" style="fill:#231f20;fill-opacity:1;fill-rule:nonzero;stroke:none"/><path d="M366.236 242.878c29.611 7.116 56.585 37.192 66.121 69.194 9.503 31.99 4.94 60.404 1.122 73.811-1.122 3.909-1.075 5.235-1.818 1.864-1.01-4.512-13.402-10.873-36.61-15.014-33.63-5.995-75.104-9.371-108.528-20.517-27.28-9.122-41.363-27.475-40.738-38.065.67-11.521 2.643-12.125-.278-3.049-3.11 9.649-9.393 32.573-.521 60.96-9.819-31.599-1.247-58.467 4.302-70.749 3.159-6.983 2.732-5.957 1.066-2.463-3.893 8.146-1.737 25.947 15.662 34.646 23.777 11.856 60.326 15.791 94.308 19.892 52.567 6.351 71.29 14.513 65.425-19.497-3.875-22.261-16.363-56.565-45.556-77.219-27.502-19.403-71.432-16.924-98.958 4.445 23.777-18.104 56.015-25.021 85.001-18.239" style="fill:#231f20;fill-opacity:1;fill-rule:nonzero;stroke:none"/><path d="M374.383 288.883c24.638 17.905 38.049 56.012 34.607 89.225-3.458 33.194-18.55 57.701-27.209 68.626-2.536 3.178-2.993 4.425-2.392 1.026.804-4.551-8.218-15.176-28.071-27.877-28.782-18.413-65.804-37.401-92.422-60.491-21.709-18.863-27.692-41.206-23.065-50.758 5.035-10.385 7.087-10.187.907-2.925-6.56 7.725-21.141 26.5-23.809 56.126 3.024-32.953 21.227-54.496 31.047-63.719 5.596-5.242 4.808-4.461 1.926-1.871-6.71 6.038-11.525 23.311 1.216 38.004 17.429 20.052 49.693 37.678 79.516 54.469 46.131 25.982 60.316 40.692 67.911 7.025 4.926-22.055 6.52-58.521-12.544-88.774-17.975-28.45-59.513-42.971-93.124-33.766 28.899-7.627 61.327-1.678 85.506 15.68" style="fill:#231f20;fill-opacity:1;fill-rule:nonzero;stroke:none"/><path d="M364.312 334.501c15.905 25.973 13.71 66.311-2.179 95.684-15.89 29.341-39.219 46.207-51.399 52.984-3.551 1.969-4.461 2.944-2.597.035 2.48-3.899-1.783-17.169-15.266-36.501-19.546-28.024-46.479-59.734-62.236-91.254-12.835-25.734-9.82-48.667-1.894-55.72 8.619-7.668 10.451-6.702 1.957-2.351-9.014 4.622-29.665 16.392-43.464 42.737 15.393-29.286 40.456-42.224 53.063-46.988 7.176-2.7 6.141-2.278 2.495-.991-8.51 3.014-19.577 17.121-13.419 35.577 8.422 25.193 31.488 53.826 52.619 80.755 32.674 41.657 40.149 60.673 60.042 32.476 13-18.487 28.435-51.571 22.386-86.818-5.714-33.161-38.537-62.472-73.111-66.833 29.617 4.018 57.309 21.921 73.003 47.208" style="fill:#231f20;fill-opacity:1;fill-rule:nonzero;stroke:none"/><path d="M337.551 372.795c4.751 30.084-12.71 66.507-38.633 87.568-25.908 21.021-53.915 27.683-67.761 29.279-4.042.457-5.242 1.018-2.416-.963 3.789-2.653 4.917-16.546-.142-39.565-7.326-33.366-20.083-72.971-22.577-108.124-2.004-28.685 9.56-48.719 19.577-52.201 10.909-3.781 12.22-2.195 2.715-1.421-10.104.813-33.69 3.788-56.52 22.844 25.434-21.162 53.536-23.523 67.012-23.098 7.665.246 6.543.246 2.683.041-9.014-.473-24.636 8.327-26.011 27.731-1.863 26.501 8.495 61.778 17.708 94.743 14.248 50.987 13.869 71.416 43.044 52.984 19.087-12.11 46.005-36.771 53.916-71.646 7.405-32.822-11.699-72.465-41.98-89.722 25.829 15.046 44.553 42.177 49.385 71.55" style="fill:#231f20;fill-opacity:1;fill-rule:nonzero;stroke:none"/><path d="M298.159 397.934c-7.112 29.61-37.188 56.579-69.181 66.115-31.994 9.509-60.413 4.946-73.824 1.121-3.9-1.121-5.226-1.069-1.863-1.812 4.515-1.002 10.877-13.402 15.014-36.608 6-33.631 9.378-75.103 20.524-108.528 9.118-27.278 27.471-41.358 38.064-40.738 11.518.675 12.126 2.646 3.048-.28-9.647-3.11-32.57-9.389-60.958-.521 31.592-9.817 58.464-1.247 70.746 4.302 6.986 3.162 5.953 2.732 2.462 1.063-8.146-3.884-25.938-1.734-34.638 15.665-11.864 23.773-15.803 60.328-19.9 94.308-6.347 52.562-14.517 71.294 19.498 65.425 22.269-3.88 56.568-16.363 77.218-45.555 19.402-27.495 16.924-71.428-4.443-98.962 18.107 23.783 25.021 56.023 18.233 85.005" style="fill:#231f20;fill-opacity:1;fill-rule:nonzero;stroke:none"/><path d="M252.162 406.084c-17.912 24.634-56.016 38.041-89.225 34.607-33.202-3.457-57.705-18.55-68.63-27.21-3.173-2.534-4.42-2.992-1.026-2.392 4.555.802 15.179-8.221 27.881-28.07 18.409-28.777 37.401-65.805 60.492-92.422 18.858-21.71 41.206-27.693 50.75-23.066 10.388 5.028 10.199 7.083 2.929.907-7.721-6.567-26.5-21.14-56.118-23.808 32.948 3.023 54.49 21.219 63.719 31.047 5.241 5.593 4.453 4.803 1.863 1.926-6.039-6.71-23.304-11.534-38.002 1.215-20.05 17.422-37.677 49.689-54.468 79.516-25.986 46.133-40.693 60.31-7.025 67.903 22.055 4.938 58.525 6.529 88.775-12.535 28.45-17.979 42.968-59.516 33.762-93.129 7.626 28.905 1.681 61.329-15.677 85.511" style="fill:#231f20;fill-opacity:1;fill-rule:nonzero;stroke:none"/><path d="M206.543 396.012c-25.971 15.906-66.309 13.711-95.682-2.175-29.341-15.899-46.211-39.217-52.992-51.402-1.958-3.555-2.936-4.456-.032-2.601 3.9 2.483 17.169-1.787 36.502-15.267 28.023-19.541 59.741-46.478 91.253-62.235 25.735-12.839 48.675-9.816 55.716-1.891 7.672 8.623 6.71 10.448 2.36 1.962-4.618-9.023-16.395-29.673-42.746-43.48 29.295 15.41 42.233 40.465 46.992 53.075 2.709 7.172 2.281 6.143.987 2.494-3.007-8.509-17.114-19.571-35.57-13.422-25.197 8.426-53.82 31.488-80.754 52.62-41.657 32.677-60.673 40.148-32.475 60.048 18.487 12.999 51.563 28.427 86.816 22.388 33.163-5.723 62.473-38.542 66.83-73.116-4.01 29.621-21.913 57.301-47.205 73.002" style="fill:#231f20;fill-opacity:1;fill-rule:nonzero;stroke:none"/><path d="M168.241 369.248c-30.075 4.756-66.498-12.71-87.559-38.625-21.029-25.917-27.683-53.916-29.286-67.766-.458-4.038-1.011-5.246.963-2.416 2.652 3.786 16.546 4.919 39.564-.138 33.376-7.329 72.98-20.08 108.132-22.575 28.686-2.013 48.719 9.555 52.193 19.576 3.789 10.901 2.196 12.216 1.43 2.712-.814-10.106-3.789-33.687-22.853-56.518 21.171 25.435 23.531 53.537 23.105 67.009-.244 7.66-.244 6.548-.039 2.682.474-9.014-8.329-24.635-27.739-26.014-26.492-1.858-61.771 8.495-94.735 17.711C80.43 279.134 60 278.759 78.433 307.936c12.101 19.083 36.762 45.997 71.637 53.907 32.831 7.405 72.466-11.703 89.729-41.976-15.044 25.829-42.176 44.553-71.558 49.381" style="fill:#231f20;fill-opacity:1;fill-rule:nonzero;stroke:none"/><path d="M143.107 329.865c-29.609-7.117-56.583-37.193-66.119-69.195-9.505-31.989-4.942-60.407-1.121-73.812 1.121-3.907 1.073-5.234 1.816-1.862 1.01 4.516 13.404 10.876 36.612 15.014 33.628 5.999 75.103 9.369 108.525 20.515 27.282 9.122 41.365 27.475 40.741 38.065-.67 11.521-2.644 12.125.276 3.052 3.11-9.651 9.393-32.575.521-60.969 9.82 31.607 1.247 58.473-4.302 70.757-3.158 6.983-2.732 5.956-1.066 2.462 3.893-8.146 1.737-25.948-15.661-34.646-23.777-11.856-60.326-15.793-94.309-19.895-52.566-6.347-71.29-14.51-65.425 19.501 3.876 22.26 16.364 56.564 45.556 77.218 27.502 19.404 71.424 16.925 98.957-4.444-23.776 18.104-56.014 25.02-85.001 18.239" style="fill:#231f20;fill-opacity:1;fill-rule:nonzero;stroke:none"/><path d="M134.961 283.858c-24.637-17.903-38.049-56.011-34.607-89.224 3.458-33.193 18.55-57.696 27.21-68.622 2.535-3.181 2.993-4.428 2.392-1.026-.805 4.545 8.218 15.172 28.07 27.873 28.782 18.417 65.804 37.402 92.423 60.492 21.707 18.862 27.692 41.21 23.067 50.757-5.037 10.384-7.09 10.187-.909 2.925 6.561-7.724 21.14-26.5 23.809-56.13-3.024 32.957-21.228 54.499-31.048 63.724-5.597 5.241-4.806 4.46-1.927 1.871 6.711-6.039 11.526-23.31-1.214-38.007-17.43-20.05-49.692-37.676-79.517-54.468-46.13-25.979-60.316-40.692-67.911-7.025-4.925 22.057-6.52 58.523 12.544 88.776 17.975 28.45 59.513 42.97 93.124 33.766-28.898 7.626-61.327 1.678-85.506-15.682" style="fill:#231f20;fill-opacity:1;fill-rule:nonzero;stroke:none"/><path d="M145.034 238.239c-15.906-25.969-13.712-66.308 2.17-95.681 15.899-29.342 39.225-46.212 51.398-52.985 3.559-1.972 4.467-2.943 2.605-.03-2.478 3.898 1.783 17.161 15.267 36.5 19.545 28.024 46.479 59.727 62.235 91.254 12.836 25.73 9.82 48.662 1.895 55.716-8.62 7.669-10.452 6.701-1.958 2.352 9.015-4.622 29.667-16.391 43.463-42.737-15.392 29.286-40.456 42.224-53.062 46.988-7.176 2.699-6.142 2.277-2.495.99 8.51-3.015 19.578-17.126 13.421-35.579-8.422-25.187-31.49-53.827-52.621-80.753-32.673-41.656-40.149-60.672-60.042-32.475-13.001 18.486-28.434 51.571-22.387 86.816 5.715 33.163 38.538 62.473 73.114 66.835-29.619-4.018-57.31-21.923-73.003-47.211" style="fill:#231f20;fill-opacity:1;fill-rule:nonzero;stroke:none"/><path d="M171.794 199.946c-4.752-30.076 12.709-66.513 38.625-87.558 25.915-21.03 53.915-27.693 67.77-29.287 4.034-.458 5.241-1.011 2.415.963-3.789 2.652-4.918 16.545.134 39.564 7.332 33.359 20.082 72.971 22.576 108.119 2.014 28.694-9.55 48.722-19.576 52.202-10.902 3.789-12.213 2.196-2.708 1.429 10.103-.82 33.684-3.789 56.521-22.853-25.444 21.163-53.545 23.533-67.012 23.106-7.666-.253-6.553-.244-2.684-.039 9.014.473 24.637-8.328 26.01-27.732 1.864-26.5-8.494-61.783-17.705-94.746-14.25-50.996-13.879-71.424-43.053-52.984-19.08 12.109-45.999 36.769-53.909 71.644-7.404 32.824 11.699 72.463 41.981 89.728-25.83-15.048-44.554-42.187-49.385-71.556" style="fill:#231f20;fill-opacity:1;fill-rule:nonzero;stroke:none"/><path d="M211.176 174.813c7.121-29.619 37.197-56.585 69.191-66.121 31.993-9.504 60.411-4.94 73.823-1.12 3.902 1.12 5.227 1.074 1.864 1.816-4.516.995-10.877 13.402-15.014 36.602-5.999 33.638-9.378 75.103-20.524 108.531-9.118 27.278-27.471 41.356-38.065 40.737-11.518-.676-12.125-2.645-3.047.279 9.647 3.111 32.569 9.391 60.956.522-31.59 9.815-58.464 1.247-70.746-4.302-6.985-3.161-5.96-2.731-2.462-1.067 8.147 3.889 25.94 1.737 34.639-15.661 11.864-23.772 15.805-60.32 19.901-94.312 6.347-52.558 14.517-71.289-19.499-65.424-22.267 3.882-56.567 16.371-77.218 45.563-19.403 27.487-16.924 71.424 4.445 98.957-18.109-23.783-25.024-56.023-18.244-85" style="fill:#231f20;fill-opacity:1;fill-rule:nonzero;stroke:none"/><path d="M257.184 166.651c17.91-24.63 56.013-38.033 89.223-34.6 33.202 3.458 57.704 18.543 68.63 27.211 3.173 2.534 4.42 2.991 1.026 2.39-4.555-.796-15.18 8.218-27.88 28.073-18.41 28.773-37.403 65.802-60.493 92.421-18.858 21.708-41.204 27.692-50.75 23.07-10.388-5.032-10.198-7.088-2.927-.912 7.719 6.567 26.499 21.139 56.118 23.808-32.95-3.019-54.492-21.221-63.721-31.047-5.24-5.593-4.451-4.803-1.863-1.926 6.039 6.71 23.305 11.533 38.002-1.216 20.051-17.421 37.678-49.688 54.469-79.516 25.986-46.131 40.692-60.307 7.025-67.901-22.056-4.943-58.526-6.53-88.775 12.534-28.45 17.982-42.967 59.521-33.763 93.128-7.625-28.902-1.682-61.33 15.679-85.517" style="fill:#231f20;fill-opacity:1;fill-rule:nonzero;stroke:none"/><path d="M302.802 176.731c25.969-15.908 66.308-13.711 95.681 2.17 29.343 15.899 46.212 39.217 52.993 51.406 1.958 3.555 2.937 4.456.032 2.6-3.902-2.482-17.171 1.788-36.502 15.267-28.025 19.542-59.742 46.48-91.254 62.236-25.734 12.84-48.673 9.817-55.716 1.89-7.673-8.624-6.709-10.446-2.36-1.96 4.618 9.021 16.396 29.673 42.746 43.474-29.295-15.404-42.233-40.46-46.992-53.07-2.709-7.172-2.282-6.141-.987-2.495 3.007 8.511 17.114 19.574 35.569 13.424 25.197-8.427 53.822-31.488 80.756-52.621 41.655-32.676 60.672-40.144 32.475-60.052-18.489-12.995-51.564-28.418-86.817-22.389-33.163 5.732-62.473 38.538-66.83 73.122 4.009-29.626 21.914-57.302 47.206-73.002" style="fill:#231f20;fill-opacity:1;fill-rule:nonzero;stroke:none"/></g></svg>